<?xml version="1.0" encoding="UTF-8" standalone="no"?>
<!-- Created with Inkscape (http://www.inkscape.org/) -->

<svg
   xmlns:dc="http://purl.org/dc/elements/1.1/"
   xmlns:cc="http://creativecommons.org/ns#"
   xmlns:rdf="http://www.w3.org/1999/02/22-rdf-syntax-ns#"
   xmlns:svg="http://www.w3.org/2000/svg"
   xmlns="http://www.w3.org/2000/svg"
   xmlns:sodipodi="http://sodipodi.sourceforge.net/DTD/sodipodi-0.dtd"
   xmlns:inkscape="http://www.inkscape.org/namespaces/inkscape"
   width="324.28601"
   height="495.71399"
   viewBox="0 0 324.28601 495.714"
   id="svg2"
   version="1.1"
   inkscape:version="0.91 r13725"
   sodipodi:docname="craftbrew.svg">
  <defs
     id="defs4" />
  <sodipodi:namedview
     id="base"
     pagecolor="#ffffff"
     bordercolor="#666666"
     borderopacity="1.0"
     inkscape:pageopacity="0.0"
     inkscape:pageshadow="2"
     inkscape:zoom="0.98994949"
     inkscape:cx="25.236158"
     inkscape:cy="206.52157"
     inkscape:document-units="px"
     inkscape:current-layer="g4147"
     showgrid="false"
     inkscape:window-width="1366"
     inkscape:window-height="768"
     inkscape:window-x="0"
     inkscape:window-y="0"
     inkscape:window-maximized="1"
     units="px" />
  <metadata
     id="metadata7">
    <rdf:RDF>
      <cc:Work
         rdf:about="">
        <dc:format>image/svg+xml</dc:format>
        <dc:type
           rdf:resource="http://purl.org/dc/dcmitype/StillImage" />
        <dc:title />
      </cc:Work>
    </rdf:RDF>
  </metadata>
  <g
     inkscape:label="Layer 1"
     inkscape:groupmode="layer"
     id="layer1"
     transform="translate(0,-556.64816)">
    <g
       id="g4147"
       transform="translate(-45.827081,294.28579)">
      <path
         sodipodi:nodetypes="cccccc"
         inkscape:connector-curvature="0"
         id="rect4170"
         d="M 45.827232,262.36221 370.11294,262.36221 370.11294,758.07651 207.97009,699.50508 45.827232,758.07651 Z"
         style="opacity:1;fill:#d7d7f4;fill-opacity:1;stroke:none;stroke-width:15;stroke-linecap:round;stroke-linejoin:round;stroke-miterlimit:4;stroke-dasharray:none;stroke-dashoffset:0;stroke-opacity:1" />
      <g
         style="font-style:normal;font-variant:normal;font-weight:normal;font-stretch:normal;font-size:95.89511108px;line-height:125%;font-family:'Goudy Bookletter 1911';-inkscape-font-specification:'Goudy Bookletter 1911, ';text-align:start;letter-spacing:0px;word-spacing:0px;writing-mode:lr-tb;text-anchor:start;fill:#afafe9;fill-opacity:1;stroke:none;stroke-width:1px;stroke-linecap:butt;stroke-linejoin:miter;stroke-opacity:1"
         id="text4139">
        <path
           d="M 121.6918,434.69907 Q 122.45896,436.1375 123.03433,437.48003 123.60971,438.82256 123.89739,440.26099 120.63696,441.8912 116.12989,442.75426 111.62282,443.71321 106.63627,443.71321 99.635928,443.71321 93.786326,441.41173 88.032619,439.11025 83.909129,434.69907 79.78564,430.2879 77.484157,423.76703 75.182674,417.24616 75.182674,408.80739 75.182674,400.17683 77.388262,393.46417 79.689745,386.65562 83.717339,382.05265 87.840829,377.35379 93.594536,374.95642 99.444137,372.46314 106.63627,372.46314 112.67766,372.46314 116.70526,373.3262 120.73285,374.18926 122.55486,374.76463 122.36307,376.49074 121.97949,377.64148 121.6918,378.79222 121.02054,380.42244 119.7739,380.03886 118.43137,379.65528 117.18473,379.2717 115.55452,378.98401 113.9243,378.69633 111.71871,378.50454 109.60902,378.31275 106.73217,378.31275 101.07435,378.31275 96.567284,380.42244 92.060214,382.43623 88.895675,386.36793 85.731137,390.29963 84.005025,395.95745 82.278913,401.61526 82.278913,408.80739 82.278913,416.19131 84.196815,421.65734 86.114717,427.12336 89.471046,430.76737 92.92327,434.31549 97.43034,436.0416 102.03331,437.76771 107.30754,437.76771 111.81461,437.76771 115.45862,436.90466 119.19853,436.0416 121.6918,434.69907 Z"
           style="font-style:normal;font-variant:normal;font-weight:normal;font-stretch:normal;font-family:'Aller Light';-inkscape-font-specification:'Aller Light, ';letter-spacing:1.10000002px;fill:#afafe9"
           id="path4160" />
        <path
           d="M 139.20335,373.3262 Q 141.31304,373.13441 142.84736,373.03851 144.47758,372.84672 145.91601,372.75083 147.45033,372.55904 149.08055,372.55904 150.71076,372.46314 152.91635,372.46314 157.51932,372.46314 161.93049,373.42209 166.43756,374.38105 169.98568,376.77842 173.5338,379.07991 175.64349,383.1075 177.84908,387.0392 177.84908,393.08059 177.84908,396.8205 176.50655,399.88915 175.16402,402.95779 172.95843,405.45106 170.84874,407.84844 167.97188,409.67045 165.19093,411.39656 162.21818,412.5473 L 161.45102,412.83499 183.411,442.56247 Q 182.45205,442.75426 181.49309,442.75426 180.53414,442.75426 179.57519,442.75426 178.61624,442.75426 177.65729,442.75426 176.79423,442.75426 175.83528,442.56247 L 151.66971,410.6294 151.66971,410.24582 153.77941,409.67045 Q 157.03984,408.80739 160.10848,407.46486 163.17713,406.02643 165.47861,404.10853 167.87599,402.09473 169.31442,399.40967 170.75284,396.72461 170.75284,393.08059 170.75284,385.60077 166.14988,381.86086 161.54691,378.12095 153.68351,378.12095 151.66971,378.12095 149.9436,378.21685 148.21749,378.31275 145.82011,378.60043 L 145.82011,442.56247 Q 145.14885,442.65836 144.1899,442.65836 143.23095,442.75426 142.46378,442.75426 141.60073,442.75426 140.73767,442.65836 139.87462,442.65836 139.20335,442.56247 L 139.20335,373.3262 Z"
           style="font-style:normal;font-variant:normal;font-weight:normal;font-stretch:normal;font-family:'Aller Light';-inkscape-font-specification:'Aller Light, ';letter-spacing:1.10000002px;fill:#afafe9"
           id="path4162" />
        <path
           d="M 211.92651,373.61388 Q 212.59778,373.51799 213.74852,373.51799 214.89926,373.42209 215.85821,373.42209 216.91306,373.42209 217.9679,373.51799 219.11864,373.51799 219.78991,373.61388 L 242.80474,442.56247 Q 242.22937,442.65836 241.17452,442.65836 240.11967,442.75426 239.16072,442.75426 238.29767,442.75426 237.33872,442.65836 236.37976,442.65836 235.7085,442.56247 L 229.95479,425.01366 201.56984,425.01366 196.10382,442.56247 Q 195.33666,442.65836 194.28181,442.65836 193.32286,442.75426 192.4598,442.75426 191.50085,442.75426 190.44601,442.65836 189.48705,442.65836 188.91168,442.56247 L 211.92651,373.61388 Z M 228.03689,418.87638 215.66642,380.51833 203.48774,418.87638 228.03689,418.87638 Z"
           style="font-style:normal;font-variant:normal;font-weight:normal;font-stretch:normal;font-family:'Aller Light';-inkscape-font-specification:'Aller Light, ';letter-spacing:1.10000002px;fill:#afafe9"
           id="path4164" />
        <path
           d="M 255.46608,373.61388 289.31706,373.61388 Q 289.41295,374.18926 289.41295,375.05231 289.50885,375.81947 289.50885,376.58663 289.50885,377.2579 289.41295,378.21685 289.41295,379.07991 289.31706,379.65528 L 262.08285,379.65528 262.08285,402.95779 285.67304,402.95779 Q 285.76894,403.53316 285.76894,404.39622 285.86483,405.16338 285.86483,405.93054 285.86483,406.6018 285.76894,407.56075 285.76894,408.42381 285.67304,408.99918 L 262.08285,408.99918 262.08285,442.56247 Q 261.41158,442.65836 260.54852,442.65836 259.68547,442.75426 258.82241,442.75426 257.86346,442.75426 256.90451,442.65836 256.04145,442.65836 255.46608,442.56247 L 255.46608,373.61388 Z"
           style="font-style:normal;font-variant:normal;font-weight:normal;font-stretch:normal;font-family:'Aller Light';-inkscape-font-specification:'Aller Light, ';letter-spacing:1.10000002px;fill:#afafe9"
           id="path4166" />
        <path
           d="M 315.44118,379.55938 296.93343,379.55938 Q 296.83753,378.98401 296.74164,378.21685 296.74164,377.35379 296.74164,376.58663 296.74164,375.91537 296.74164,375.05231 296.83753,374.18926 296.93343,373.61388 L 340.5657,373.61388 Q 340.6616,374.18926 340.6616,374.95642 340.75749,375.72358 340.75749,376.49074 340.75749,377.162 340.6616,378.12095 340.6616,378.98401 340.5657,379.55938 L 322.05795,379.55938 322.05795,442.56247 Q 321.38668,442.65836 320.52363,442.65836 319.66057,442.75426 318.79751,442.75426 317.83856,442.75426 316.87961,442.65836 316.01656,442.65836 315.44118,442.56247 L 315.44118,379.55938 Z"
           style="font-style:normal;font-variant:normal;font-weight:normal;font-stretch:normal;font-family:'Aller Light';-inkscape-font-specification:'Aller Light, ';letter-spacing:1.10000002px;fill:#afafe9"
           id="path4168" />
      </g>
      <g
         style="font-style:normal;font-variant:normal;font-weight:normal;font-stretch:normal;font-size:104.75466156px;line-height:125%;font-family:'Goudy Bookletter 1911';-inkscape-font-specification:'Goudy Bookletter 1911, ';text-align:start;letter-spacing:0px;word-spacing:0px;writing-mode:lr-tb;text-anchor:start;fill:#5f5fd3;fill-opacity:1;stroke:none;stroke-width:1px;stroke-linecap:butt;stroke-linejoin:miter;stroke-opacity:1"
         id="text4145">
        <path
           d="M 75.182577,487.35181 Q 76.230123,487.24705 78.115707,487.03754 80.106046,486.82804 82.305894,486.61853 84.505742,486.40902 86.70559,486.30426 89.010192,486.19951 90.791021,486.19951 103.15207,486.19951 109.75162,491.01822 116.35116,495.73218 116.35116,505.78863 116.35116,509.03602 115.30361,511.75964 114.36082,514.37851 112.68475,516.57836 111.00867,518.67345 108.70407,520.14002 106.50422,521.60658 104.09486,522.33987 107.34226,522.75888 110.38014,524.12069 113.41803,525.37775 115.72263,527.78711 118.13199,530.09171 119.4938,533.65337 120.96036,537.11027 120.96036,542.03374 120.96036,547.69049 118.65576,551.77593 116.45591,555.86136 112.37048,558.58498 108.3898,561.3086 102.83781,562.67041 97.390565,563.92747 90.895776,563.92747 89.219701,563.92747 87.124608,563.82271 85.029515,563.71796 82.829667,563.50845 80.734574,563.40369 78.639481,563.08943 76.649142,562.87992 75.182577,562.67041 L 75.182577,487.35181 Z M 92.362341,519.40673 Q 100.84747,519.40673 104.72339,515.63557 108.70407,511.8644 108.70407,505.78863 108.70407,500.13188 104.51388,496.36071 100.42845,492.48479 91.524304,492.48479 88.800683,492.48479 86.286571,492.6943 83.877214,492.90381 82.410648,493.11331 L 82.410648,519.40673 92.362341,519.40673 Z M 82.410648,556.80415 Q 83.877214,557.01366 86.286571,557.22317 88.800683,557.32792 91.524304,557.32792 95.609736,557.32792 99.485658,556.59464 103.46634,555.86136 106.50422,554.08053 109.54211,552.2997 111.32294,549.36657 113.20852,546.43344 113.20852,542.03374 113.20852,537.63405 111.6372,534.70092 110.06588,531.66303 107.34226,529.77745 104.61864,527.89186 100.95222,527.05383 97.28581,526.21579 93.095624,526.21579 L 82.410648,526.21579 82.410648,556.80415 Z"
           style="font-style:normal;font-variant:normal;font-weight:normal;font-stretch:normal;font-family:'Aller Light';-inkscape-font-specification:'Aller Light, ';letter-spacing:1.20162678px;fill:#5f5fd3"
           id="path4151" />
        <path
           d="M 137.96848,487.03754 Q 140.27309,486.82804 141.94916,486.72328 143.72999,486.51377 145.30131,486.40902 146.97739,486.19951 148.75821,486.19951 150.53904,486.09475 152.9484,486.09475 157.97662,486.09475 162.79534,487.1423 167.71881,488.18985 171.59473,490.80871 175.47065,493.32282 177.77526,497.72252 180.18461,502.01746 180.18461,508.617 180.18461,512.70244 178.71805,516.05459 177.25148,519.40673 174.84213,522.13036 172.53752,524.74922 169.39488,526.73956 166.357,528.62515 163.1096,529.8822 L 162.27157,530.19647 186.26038,562.67041 Q 185.21284,562.87992 184.16529,562.87992 183.11774,562.87992 182.0702,562.87992 181.02265,562.87992 179.9751,562.87992 179.03231,562.87992 177.98477,562.67041 L 151.58659,527.78711 151.58659,527.36809 153.89119,526.73956 Q 157.45285,525.79677 160.805,524.3302 164.15715,522.75888 166.67126,520.66379 169.29013,518.46394 170.86145,515.53081 172.43277,512.59768 172.43277,508.617 172.43277,500.44614 167.40454,496.36071 162.37632,492.27528 153.78644,492.27528 151.58659,492.27528 149.70101,492.38003 147.81542,492.48479 145.19656,492.79905 L 145.19656,562.67041 Q 144.46327,562.77516 143.41573,562.77516 142.36818,562.87992 141.53014,562.87992 140.58735,562.87992 139.64456,562.77516 138.70177,562.77516 137.96848,562.67041 L 137.96848,487.03754 Z"
           style="font-style:normal;font-variant:normal;font-weight:normal;font-stretch:normal;font-family:'Aller Light';-inkscape-font-specification:'Aller Light, ';letter-spacing:1.20162678px;fill:#5f5fd3"
           id="path4153" />
        <path
           d="M 200.75439,487.35181 241.08494,487.35181 Q 241.18969,487.98034 241.18969,488.92313 241.29445,489.76117 241.29445,490.5992 241.29445,491.33249 241.18969,492.38003 241.18969,493.32282 241.08494,493.95135 L 207.98246,493.95135 207.98246,519.40673 234.59015,519.40673 Q 234.6949,520.03526 234.6949,520.97805 234.79966,521.81609 234.79966,522.65413 234.79966,523.38741 234.6949,524.43496 234.6949,525.37775 234.59015,526.00628 L 207.98246,526.00628 207.98246,556.07087 242.02773,556.07087 Q 242.13248,556.69939 242.13248,557.64219 242.23724,558.48022 242.23724,559.31826 242.23724,560.05154 242.13248,561.09909 242.13248,562.04188 242.02773,562.67041 L 200.75439,562.67041 200.75439,487.35181 Z"
           style="font-style:normal;font-variant:normal;font-weight:normal;font-stretch:normal;font-family:'Aller Light';-inkscape-font-specification:'Aller Light, ';letter-spacing:1.20162678px;fill:#5f5fd3"
           id="path4155" />
        <path
           d="M 251.82088,487.35181 Q 252.44941,487.24705 253.70646,487.24705 254.96352,487.1423 256.01107,487.1423 256.95386,487.1423 258.21092,487.24705 259.46797,487.24705 260.20125,487.35181 L 274.76215,554.6043 292.04667,487.35181 Q 292.6752,487.24705 294.03701,487.24705 295.50357,487.1423 296.44637,487.1423 297.2844,487.1423 298.75097,487.24705 300.21753,487.24705 300.95082,487.35181 L 318.13058,554.6043 332.90099,487.35181 Q 333.73903,487.24705 334.68182,487.24705 335.72936,487.1423 336.67216,487.1423 337.7197,487.1423 338.872,487.24705 340.12906,487.24705 340.75759,487.35181 L 322.53028,562.67041 Q 321.79699,562.77516 320.33043,562.77516 318.86386,562.87992 317.92107,562.87992 316.87353,562.87992 315.30221,562.77516 313.83564,562.77516 313.10236,562.67041 L 296.23686,497.09399 279.47611,562.67041 Q 278.74283,562.77516 277.27626,562.77516 275.8097,562.87992 274.86691,562.87992 273.81936,562.87992 272.24804,562.77516 270.78147,562.77516 270.04819,562.67041 L 251.82088,487.35181 Z"
           style="font-style:normal;font-variant:normal;font-weight:normal;font-stretch:normal;font-family:'Aller Light';-inkscape-font-specification:'Aller Light, ';letter-spacing:1.20162678px;fill:#5f5fd3"
           id="path4157" />
      </g>
      <path
         style="color:#000000;font-style:normal;font-variant:normal;font-weight:normal;font-stretch:normal;font-size:medium;line-height:normal;font-family:sans-serif;text-indent:0;text-align:start;text-decoration:none;text-decoration-line:none;text-decoration-style:solid;text-decoration-color:#000000;letter-spacing:normal;word-spacing:normal;text-transform:none;direction:ltr;block-progression:tb;writing-mode:lr-tb;baseline-shift:baseline;text-anchor:start;white-space:normal;clip-rule:nonzero;display:inline;overflow:visible;visibility:visible;opacity:1;isolation:auto;mix-blend-mode:normal;color-interpolation:sRGB;color-interpolation-filters:linearRGB;solid-color:#000000;solid-opacity:1;fill:#f2f2f2;fill-opacity:1;fill-rule:evenodd;stroke:none;stroke-width:4;stroke-linecap:round;stroke-linejoin:round;stroke-miterlimit:4;stroke-dasharray:none;stroke-dashoffset:0;stroke-opacity:1;color-rendering:auto;image-rendering:auto;shape-rendering:auto;text-rendering:auto;enable-background:accumulate"
         d="M 161.00586,462.9043 A 2.0002,2.0002 0 1 0 161.00586,466.9043 L 254.93359,466.9043 A 2.0002,2.0002 0 1 0 254.93359,462.9043 L 161.00586,462.9043 Z"
         id="path4173"
         inkscape:connector-curvature="0" />
    </g>
  </g>
</svg>
